<svg width="72" height="72" viewBox="0 0 72 72" fill="none" xmlns="http://www.w3.org/2000/svg">
<ellipse cx="36.9016" cy="34.4997" rx="6.3" ry="6.3" fill="#FF9738"/>
<path d="M36.0016 48.2998L47.1016 49.9319V58.6319L36.0016 62.9998L24.6016 58.6319V49.9319L36.0016 48.2998Z" fill="#FF9738"/>
<path d="M44.3588 46.2856C45.8933 46.2856 47.3649 46.8952 48.4499 47.9802C49.535 49.0653 50.1445 50.5369 50.1445 52.0714V55.9336L50.124 56.2114C49.3268 61.6808 44.4154 64.3088 36.174 64.3088C27.9634 64.3088 22.9722 61.7116 21.8948 56.3065L21.8588 55.9285V52.0714C21.8588 50.5369 22.4684 49.0653 23.5534 47.9802C24.6384 46.8952 26.1101 46.2856 27.6445 46.2856H44.3588ZM44.3588 50.1428H27.6445C27.133 50.1428 26.6425 50.346 26.2808 50.7076C25.9192 51.0693 25.716 51.5599 25.716 52.0714V55.7228C26.436 58.8085 29.7017 60.4516 36.174 60.4516C42.6437 60.4516 45.7654 58.8291 46.2874 55.7819V52.0714C46.2874 51.5599 46.0842 51.0693 45.7225 50.7076C45.3609 50.346 44.8703 50.1428 44.3588 50.1428ZM46.9148 30.8545L61.0731 30.8571C62.6076 30.8571 64.0792 31.4666 65.1642 32.5517C66.2493 33.6367 66.8588 35.1083 66.8588 36.6428V40.5051L66.8383 40.7828C66.0411 46.2522 61.1297 48.8802 52.8882 48.8802L52.0783 48.8725C51.319 47.0421 49.9349 45.5404 48.1722 44.6348C49.4965 44.8919 51.0651 45.0231 52.8882 45.0231C59.358 45.0231 62.4797 43.4005 63.0017 40.3534V36.6428C63.0017 36.1313 62.7985 35.6408 62.4368 35.2791C62.0751 34.9174 61.5846 34.7142 61.0731 34.7142H47.5731C47.5731 33.3616 47.3417 32.0605 46.9148 30.8545ZM10.9302 30.8571L25.0885 30.8545C24.7254 31.8817 24.5099 32.9553 24.4482 34.0431L24.4302 34.7142H10.9302C10.4188 34.7142 9.92822 34.9174 9.56654 35.2791C9.20486 35.6408 9.00167 36.1313 9.00167 36.6428V40.2942C9.72167 43.3799 12.9874 45.0231 19.4597 45.0231C21.0591 45.0231 22.4528 44.9228 23.6562 44.7274C21.9731 45.642 20.6544 47.1059 19.92 48.8751L19.4571 48.8802C11.2491 48.8802 6.25796 46.2831 5.18053 40.8779L5.14453 40.4999V36.6428C5.14453 35.1083 5.7541 33.6367 6.83913 32.5517C7.92416 31.4666 9.39578 30.8571 10.9302 30.8571ZM36.0017 25.7142C38.3886 25.7142 40.6778 26.6624 42.3656 28.3503C44.0535 30.0381 45.0017 32.3273 45.0017 34.7142C45.0017 37.1012 44.0535 39.3903 42.3656 41.0782C40.6778 42.766 38.3886 43.7142 36.0017 43.7142C33.6147 43.7142 31.3255 42.766 29.6377 41.0782C27.9499 39.3903 27.0017 37.1012 27.0017 34.7142C27.0017 32.3273 27.9499 30.0381 29.6377 28.3503C31.3255 26.6624 33.6147 25.7142 36.0017 25.7142ZM36.0017 29.5714C34.6377 29.5714 33.3296 30.1132 32.3651 31.0777C31.4007 32.0421 30.8588 33.3502 30.8588 34.7142C30.8588 36.0782 31.4007 37.3863 32.3651 38.3508C33.3296 39.3152 34.6377 39.8571 36.0017 39.8571C37.3656 39.8571 38.6738 39.3152 39.6382 38.3508C40.6027 37.3863 41.1445 36.0782 41.1445 34.7142C41.1445 33.3502 40.6027 32.0421 39.6382 31.0777C38.6738 30.1132 37.3656 29.5714 36.0017 29.5714ZM52.716 10.2856C55.1029 10.2856 57.3921 11.2339 59.0799 12.9217C60.7678 14.6095 61.716 16.8987 61.716 19.2856C61.716 21.6726 60.7678 23.9618 59.0799 25.6496C57.3921 27.3374 55.1029 28.2856 52.716 28.2856C50.329 28.2856 48.0398 27.3374 46.352 25.6496C44.6642 23.9618 43.716 21.6726 43.716 19.2856C43.716 16.8987 44.6642 14.6095 46.352 12.9217C48.0398 11.2339 50.329 10.2856 52.716 10.2856ZM19.2874 10.2856C21.6743 10.2856 23.9635 11.2339 25.6514 12.9217C27.3392 14.6095 28.2874 16.8987 28.2874 19.2856C28.2874 21.6726 27.3392 23.9618 25.6514 25.6496C23.9635 27.3374 21.6743 28.2856 19.2874 28.2856C16.9004 28.2856 14.6113 27.3374 12.9234 25.6496C11.2356 23.9618 10.2874 21.6726 10.2874 19.2856C10.2874 16.8987 11.2356 14.6095 12.9234 12.9217C14.6113 11.2339 16.9004 10.2856 19.2874 10.2856ZM52.716 14.1428C51.352 14.1428 50.0439 14.6846 49.0794 15.6491C48.1149 16.6136 47.5731 17.9217 47.5731 19.2856C47.5731 20.6496 48.1149 21.9577 49.0794 22.9222C50.0439 23.8867 51.352 24.4285 52.716 24.4285C54.0799 24.4285 55.388 23.8867 56.3525 22.9222C57.317 21.9577 57.8588 20.6496 57.8588 19.2856C57.8588 17.9217 57.317 16.6136 56.3525 15.6491C55.388 14.6846 54.0799 14.1428 52.716 14.1428ZM19.2874 14.1428C17.9234 14.1428 16.6153 14.6846 15.6508 15.6491C14.6864 16.6136 14.1445 17.9217 14.1445 19.2856C14.1445 20.6496 14.6864 21.9577 15.6508 22.9222C16.6153 23.8867 17.9234 24.4285 19.2874 24.4285C20.6514 24.4285 21.9595 23.8867 22.9239 22.9222C23.8884 21.9577 24.4302 20.6496 24.4302 19.2856C24.4302 17.9217 23.8884 16.6136 22.9239 15.6491C21.9595 14.6846 20.6514 14.1428 19.2874 14.1428Z" fill="#FCFDFC"/>
</svg>
