<svg width="60" height="60" viewBox="0 0 60 60" fill="none" xmlns="http://www.w3.org/2000/svg">
<rect x="0.5" y="-0.5" width="59" height="59" rx="29.5" transform="matrix(1 0 0 -1 0 59)" fill="url(#paint0_linear_767_254)" stroke="#06316B"/>
<path d="M5.22725 35C4.84325 35 4.55525 34.8773 4.36325 34.632C4.17125 34.3867 4.08592 34.0933 4.10725 33.752C4.13925 33.4 4.29392 33.0747 4.57125 32.776L7.70725 29.224H5.11525C4.41125 29.224 4.05925 28.872 4.05925 28.168C4.05925 27.4747 4.41125 27.128 5.11525 27.128H9.64325C10.0699 27.128 10.3899 27.2507 10.6033 27.496C10.8166 27.7413 10.9126 28.0347 10.8913 28.376C10.8699 28.7173 10.7206 29.0373 10.4433 29.336L7.29125 32.904H10.0433C10.7579 32.904 11.1153 33.2507 11.1153 33.944C11.1153 34.648 10.7579 35 10.0433 35H5.22725ZM15.1041 35.176C14.0801 35.176 13.3228 34.8987 12.8321 34.344C12.3521 33.7787 12.1121 32.92 12.1121 31.768V28.408C12.1121 27.4587 12.5868 26.984 13.5361 26.984C13.9948 26.984 14.3468 27.1067 14.5921 27.352C14.8375 27.5973 14.9601 27.9493 14.9601 28.408V31.848C14.9601 32.616 15.2908 33 15.9521 33C16.3361 33 16.6508 32.8613 16.8961 32.584C17.1415 32.3067 17.2641 31.9387 17.2641 31.48V28.408C17.2641 27.4587 17.7388 26.984 18.6881 26.984C19.1468 26.984 19.4988 27.1067 19.7441 27.352C19.9895 27.5973 20.1121 27.9493 20.1121 28.408V33.704C20.1121 34.664 19.6535 35.144 18.7361 35.144C17.9148 35.144 17.4508 34.76 17.3441 33.992C16.8321 34.7813 16.0855 35.176 15.1041 35.176ZM25.8975 35.176C24.7028 35.176 23.8175 34.8987 23.2415 34.344C22.6655 33.7893 22.3775 32.952 22.3775 31.832V29.224H21.8335C21.1188 29.224 20.7615 28.872 20.7615 28.168C20.7615 27.4747 21.1188 27.128 21.8335 27.128H22.3775V26.136C22.3775 25.6667 22.5002 25.3093 22.7455 25.064C22.9908 24.8187 23.3428 24.696 23.8015 24.696C24.7508 24.696 25.2255 25.176 25.2255 26.136V27.128H26.5375C27.2628 27.128 27.6255 27.4747 27.6255 28.168C27.6255 28.872 27.2628 29.224 26.5375 29.224H25.2255V31.736C25.2255 32.504 25.6148 32.888 26.3935 32.888C26.5428 32.888 26.6868 32.872 26.8255 32.84C26.9642 32.808 27.0922 32.792 27.2095 32.792C27.3802 32.7813 27.5188 32.8347 27.6255 32.952C27.7322 33.0587 27.7855 33.3093 27.7855 33.704C27.7855 34.024 27.7375 34.296 27.6415 34.52C27.5455 34.7333 27.3748 34.888 27.1295 34.984C26.9802 35.0373 26.7775 35.08 26.5215 35.112C26.2655 35.1547 26.0575 35.176 25.8975 35.176ZM31.526 35.176C30.502 35.176 29.7447 34.8987 29.254 34.344C28.774 33.7787 28.534 32.92 28.534 31.768V28.408C28.534 27.4587 29.0087 26.984 29.958 26.984C30.4167 26.984 30.7687 27.1067 31.014 27.352C31.2593 27.5973 31.382 27.9493 31.382 28.408V31.848C31.382 32.616 31.7127 33 32.374 33C32.758 33 33.0727 32.8613 33.318 32.584C33.5633 32.3067 33.686 31.9387 33.686 31.48V28.408C33.686 27.4587 34.1607 26.984 35.11 26.984C35.5687 26.984 35.9207 27.1067 36.166 27.352C36.4113 27.5973 36.534 27.9493 36.534 28.408V33.704C36.534 34.664 36.0753 35.144 35.158 35.144C34.3367 35.144 33.8727 34.76 33.766 33.992C33.254 34.7813 32.5073 35.176 31.526 35.176ZM42.0954 38.056C40.89 38.056 39.898 37.9013 39.1194 37.592C38.7354 37.4533 38.4847 37.2507 38.3674 36.984C38.2607 36.7173 38.25 36.4453 38.3354 36.168C38.4207 35.9013 38.57 35.6933 38.7834 35.544C39.0074 35.4053 39.2687 35.3893 39.5674 35.496C40.0367 35.688 40.458 35.8107 40.8314 35.864C41.2154 35.928 41.546 35.96 41.8234 35.96C42.474 35.96 42.9594 35.8213 43.2794 35.544C43.61 35.2773 43.7754 34.856 43.7754 34.28V33.544C43.5514 33.928 43.2154 34.232 42.7674 34.456C42.3194 34.68 41.8394 34.792 41.3274 34.792C40.6234 34.792 40.01 34.632 39.4874 34.312C38.9647 33.9813 38.554 33.5227 38.2554 32.936C37.9674 32.3493 37.8234 31.6613 37.8234 30.872C37.8234 30.0827 37.9674 29.3947 38.2554 28.808C38.554 28.2213 38.9647 27.768 39.4874 27.448C40.01 27.1173 40.6234 26.952 41.3274 26.952C41.85 26.952 42.33 27.064 42.7674 27.288C43.2154 27.5013 43.5407 27.7947 43.7434 28.168C43.8394 27.3787 44.3087 26.984 45.1514 26.984C46.0794 26.984 46.5434 27.4587 46.5434 28.408V33.944C46.5434 35.32 46.1594 36.3493 45.3914 37.032C44.6234 37.7147 43.5247 38.056 42.0954 38.056ZM42.2074 32.696C42.6767 32.696 43.05 32.536 43.3274 32.216C43.6047 31.896 43.7434 31.448 43.7434 30.872C43.7434 30.296 43.6047 29.848 43.3274 29.528C43.05 29.208 42.6767 29.048 42.2074 29.048C41.7487 29.048 41.3807 29.208 41.1034 29.528C40.826 29.848 40.6874 30.296 40.6874 30.872C40.6874 31.448 40.826 31.896 41.1034 32.216C41.3807 32.536 41.7487 32.696 42.2074 32.696ZM50.943 35.176C50.335 35.176 49.7963 35.064 49.327 34.84C48.8683 34.616 48.5057 34.312 48.239 33.928C47.983 33.5333 47.855 33.0853 47.855 32.584C47.855 32.0187 48.0043 31.5707 48.303 31.24C48.6017 30.8987 49.0817 30.6587 49.743 30.52C50.4043 30.3707 51.2843 30.296 52.383 30.296H52.991V30.072C52.991 29.688 52.8897 29.416 52.687 29.256C52.495 29.096 52.159 29.016 51.679 29.016C51.4123 29.016 51.119 29.048 50.799 29.112C50.4897 29.1653 50.1377 29.2667 49.743 29.416C49.391 29.544 49.0977 29.5387 48.863 29.4C48.6283 29.2613 48.4737 29.064 48.399 28.808C48.335 28.5413 48.3617 28.28 48.479 28.024C48.607 27.7573 48.847 27.56 49.199 27.432C49.711 27.2507 50.1803 27.128 50.607 27.064C51.0443 26.9893 51.4443 26.952 51.807 26.952C53.119 26.952 54.0897 27.2347 54.719 27.8C55.359 28.3653 55.679 29.256 55.679 30.472V33.704C55.679 34.664 55.2417 35.144 54.367 35.144C53.535 35.144 53.0923 34.7173 53.039 33.864C52.8897 34.2693 52.6337 34.5893 52.271 34.824C51.9083 35.0587 51.4657 35.176 50.943 35.176ZM51.583 33.32C51.9777 33.32 52.3083 33.192 52.575 32.936C52.8523 32.68 52.991 32.344 52.991 31.928V31.64H52.383C51.7537 31.64 51.2897 31.7093 50.991 31.848C50.703 31.976 50.559 32.184 50.559 32.472C50.559 32.7173 50.6443 32.92 50.815 33.08C50.9963 33.24 51.2523 33.32 51.583 33.32Z" fill="#06316B"/>
<defs>
<linearGradient id="paint0_linear_767_254" x1="60" y1="5.05262" x2="0.0977232" y2="8.99099" gradientUnits="userSpaceOnUse">
<stop offset="0.260417" stop-color="#F5785A"/>
<stop offset="0.515641" stop-color="#65FC8E"/>
<stop offset="0.796908" stop-color="#F5EA4E"/>
</linearGradient>
</defs>
</svg>
