<svg width="182" height="48" viewBox="0 0 182 48" fill="none" xmlns="http://www.w3.org/2000/svg">
<path d="M4.936 37C3.592 37 2.584 36.5707 1.912 35.712C1.24 34.8533 0.941333 33.8267 1.016 32.632C1.128 31.4 1.66933 30.2613 2.64 29.216L13.616 16.784H4.544C2.08 16.784 0.848 15.552 0.848 13.088C0.848 10.6613 2.08 9.448 4.544 9.448H20.392C21.8853 9.448 23.0053 9.87733 23.752 10.736C24.4987 11.5947 24.8347 12.6213 24.76 13.816C24.6853 15.0107 24.1627 16.1307 23.192 17.176L12.16 29.664H21.792C24.2933 29.664 25.544 30.8773 25.544 33.304C25.544 35.768 24.2933 37 21.792 37H4.936ZM39.5051 37.616C35.9211 37.616 33.2704 36.6453 31.5531 34.704C29.8731 32.7253 29.0331 29.72 29.0331 25.688V13.928C29.0331 10.6053 30.6944 8.944 34.0171 8.944C35.6224 8.944 36.8544 9.37333 37.7131 10.232C38.5717 11.0907 39.0011 12.3227 39.0011 13.928V25.968C39.0011 28.656 40.1584 30 42.4731 30C43.8171 30 44.9184 29.5147 45.7771 28.544C46.6357 27.5733 47.0651 26.2853 47.0651 24.68V13.928C47.0651 10.6053 48.7264 8.944 52.0491 8.944C53.6544 8.944 54.8864 9.37333 55.7451 10.232C56.6037 11.0907 57.0331 12.3227 57.0331 13.928V32.464C57.0331 35.824 55.4277 37.504 52.2171 37.504C49.3424 37.504 47.7184 36.16 47.3451 33.472C45.5531 36.2347 42.9397 37.616 39.5051 37.616ZM77.2819 37.616C73.1005 37.616 70.0019 36.6453 67.9859 34.704C65.9699 32.7627 64.9619 29.832 64.9619 25.912V16.784H63.0579C60.5565 16.784 59.3059 15.552 59.3059 13.088C59.3059 10.6613 60.5565 9.448 63.0579 9.448H64.9619V5.976C64.9619 4.33333 65.3912 3.08266 66.2499 2.224C67.1085 1.36533 68.3405 0.935997 69.9459 0.935997C73.2685 0.935997 74.9299 2.616 74.9299 5.976V9.448H79.5219C82.0605 9.448 83.3299 10.6613 83.3299 13.088C83.3299 15.552 82.0605 16.784 79.5219 16.784H74.9299V25.576C74.9299 28.264 76.2925 29.608 79.0179 29.608C79.5405 29.608 80.0445 29.552 80.5299 29.44C81.0152 29.328 81.4632 29.272 81.8739 29.272C82.4712 29.2347 82.9565 29.4213 83.3299 29.832C83.7032 30.2053 83.8899 31.0827 83.8899 32.464C83.8899 33.584 83.7219 34.536 83.3859 35.32C83.0499 36.0667 82.4525 36.608 81.5939 36.944C81.0712 37.1307 80.3619 37.28 79.4659 37.392C78.5699 37.5413 77.8419 37.616 77.2819 37.616ZM96.9816 37.616C93.3976 37.616 90.747 36.6453 89.0296 34.704C87.3496 32.7253 86.5096 29.72 86.5096 25.688V13.928C86.5096 10.6053 88.171 8.944 91.4936 8.944C93.099 8.944 94.331 9.37333 95.1896 10.232C96.0483 11.0907 96.4776 12.3227 96.4776 13.928V25.968C96.4776 28.656 97.635 30 99.9496 30C101.294 30 102.395 29.5147 103.254 28.544C104.112 27.5733 104.542 26.2853 104.542 24.68V13.928C104.542 10.6053 106.203 8.944 109.526 8.944C111.131 8.944 112.363 9.37333 113.222 10.232C114.08 11.0907 114.51 12.3227 114.51 13.928V32.464C114.51 35.824 112.904 37.504 109.694 37.504C106.819 37.504 105.195 36.16 104.822 33.472C103.03 36.2347 100.416 37.616 96.9816 37.616ZM133.974 47.696C129.756 47.696 126.284 47.1547 123.558 46.072C122.214 45.5867 121.337 44.8773 120.926 43.944C120.553 43.0107 120.516 42.0587 120.814 41.088C121.113 40.1547 121.636 39.4267 122.382 38.904C123.166 38.4187 124.081 38.3627 125.126 38.736C126.769 39.408 128.244 39.8373 129.55 40.024C130.894 40.248 132.052 40.36 133.022 40.36C135.3 40.36 136.998 39.8747 138.118 38.904C139.276 37.9707 139.854 36.496 139.854 34.48V31.904C139.07 33.248 137.894 34.312 136.326 35.096C134.758 35.88 133.078 36.272 131.286 36.272C128.822 36.272 126.676 35.712 124.846 34.592C123.017 33.4347 121.58 31.8293 120.534 29.776C119.526 27.7227 119.022 25.3147 119.022 22.552C119.022 19.7893 119.526 17.3813 120.534 15.328C121.58 13.2747 123.017 11.688 124.846 10.568C126.676 9.41067 128.822 8.832 131.286 8.832C133.116 8.832 134.796 9.224 136.326 10.008C137.894 10.7547 139.033 11.7813 139.742 13.088C140.078 10.3253 141.721 8.944 144.67 8.944C147.918 8.944 149.542 10.6053 149.542 13.928V33.304C149.542 38.12 148.198 41.7227 145.51 44.112C142.822 46.5013 138.977 47.696 133.974 47.696ZM134.366 28.936C136.009 28.936 137.316 28.376 138.286 27.256C139.257 26.136 139.742 24.568 139.742 22.552C139.742 20.536 139.257 18.968 138.286 17.848C137.316 16.728 136.009 16.168 134.366 16.168C132.761 16.168 131.473 16.728 130.502 17.848C129.532 18.968 129.046 20.536 129.046 22.552C129.046 24.568 129.532 26.136 130.502 27.256C131.473 28.376 132.761 28.936 134.366 28.936ZM164.941 37.616C162.813 37.616 160.928 37.224 159.285 36.44C157.68 35.656 156.41 34.592 155.477 33.248C154.581 31.8667 154.133 30.2987 154.133 28.544C154.133 26.5653 154.656 24.9973 155.701 23.84C156.746 22.6453 158.426 21.8053 160.741 21.32C163.056 20.7973 166.136 20.536 169.981 20.536H172.109V19.752C172.109 18.408 171.754 17.456 171.045 16.896C170.373 16.336 169.197 16.056 167.517 16.056C166.584 16.056 165.557 16.168 164.437 16.392C163.354 16.5787 162.122 16.9333 160.741 17.456C159.509 17.904 158.482 17.8853 157.661 17.4C156.84 16.9147 156.298 16.224 156.037 15.328C155.813 14.3947 155.906 13.48 156.317 12.584C156.765 11.6507 157.605 10.96 158.837 10.512C160.629 9.87733 162.272 9.448 163.765 9.224C165.296 8.96267 166.696 8.832 167.965 8.832C172.557 8.832 175.954 9.82133 178.157 11.8C180.397 13.7787 181.517 16.896 181.517 21.152V32.464C181.517 35.824 179.986 37.504 176.925 37.504C174.013 37.504 172.464 36.0107 172.277 33.024C171.754 34.4427 170.858 35.5627 169.589 36.384C168.32 37.2053 166.77 37.616 164.941 37.616ZM167.181 31.12C168.562 31.12 169.72 30.672 170.653 29.776C171.624 28.88 172.109 27.704 172.109 26.248V25.24H169.981C167.778 25.24 166.154 25.4827 165.109 25.968C164.101 26.416 163.597 27.144 163.597 28.152C163.597 29.0107 163.896 29.72 164.493 30.28C165.128 30.84 166.024 31.12 167.181 31.12Z" fill="url(#paint0_linear_694_789)"/>
<defs>
<linearGradient id="paint0_linear_694_789" x1="185" y1="-12.6" x2="3.20701" y2="16.6516" gradientUnits="userSpaceOnUse">
<stop offset="0.260417" stop-color="#F5785A"/>
<stop offset="0.515641" stop-color="#65FC8E"/>
<stop offset="0.796908" stop-color="#F5EA4E"/>
</linearGradient>
</defs>
</svg>
