<svg width="104" height="28" viewBox="0 0 104 28" fill="none" xmlns="http://www.w3.org/2000/svg">
<path d="M2.392 21C1.624 21 1.048 20.7547 0.664 20.264C0.28 19.7733 0.109333 19.1867 0.152 18.504C0.216 17.8 0.525333 17.1493 1.08 16.552L7.352 9.448H2.168C0.76 9.448 0.056 8.744 0.056 7.336C0.056 5.94933 0.76 5.256 2.168 5.256H11.224C12.0773 5.256 12.7173 5.50133 13.144 5.992C13.5707 6.48267 13.7627 7.06933 13.72 7.752C13.6773 8.43467 13.3787 9.07467 12.824 9.672L6.52 16.808H12.024C13.4533 16.808 14.168 17.5013 14.168 18.888C14.168 20.296 13.4533 21 12.024 21H2.392ZM22.1458 21.352C20.0978 21.352 18.5831 20.7973 17.6018 19.688C16.6418 18.5573 16.1618 16.84 16.1618 14.536V7.816C16.1618 5.91733 17.1111 4.968 19.0098 4.968C19.9271 4.968 20.6311 5.21333 21.1218 5.704C21.6124 6.19467 21.8578 6.89867 21.8578 7.816V14.696C21.8578 16.232 22.5191 17 23.8418 17C24.6098 17 25.2391 16.7227 25.7298 16.168C26.2204 15.6133 26.4658 14.8773 26.4658 13.96V7.816C26.4658 5.91733 27.4151 4.968 29.3138 4.968C30.2311 4.968 30.9351 5.21333 31.4258 5.704C31.9164 6.19467 32.1618 6.89867 32.1618 7.816V18.408C32.1618 20.328 31.2444 21.288 29.4098 21.288C27.7671 21.288 26.8391 20.52 26.6258 18.984C25.6018 20.5627 24.1084 21.352 22.1458 21.352ZM43.7325 21.352C41.3432 21.352 39.5725 20.7973 38.4205 19.688C37.2685 18.5787 36.6925 16.904 36.6925 14.664V9.448H35.6045C34.1752 9.448 33.4605 8.744 33.4605 7.336C33.4605 5.94933 34.1752 5.256 35.6045 5.256H36.6925V3.272C36.6925 2.33333 36.9378 1.61867 37.4285 1.128C37.9192 0.637332 38.6232 0.391998 39.5405 0.391998C41.4392 0.391998 42.3885 1.352 42.3885 3.272V5.256H45.0125C46.4632 5.256 47.1885 5.94933 47.1885 7.336C47.1885 8.744 46.4632 9.448 45.0125 9.448H42.3885V14.472C42.3885 16.008 43.1672 16.776 44.7245 16.776C45.0232 16.776 45.3112 16.744 45.5885 16.68C45.8658 16.616 46.1218 16.584 46.3565 16.584C46.6978 16.5627 46.9752 16.6693 47.1885 16.904C47.4018 17.1173 47.5085 17.6187 47.5085 18.408C47.5085 19.048 47.4125 19.592 47.2205 20.04C47.0285 20.4667 46.6872 20.776 46.1965 20.968C45.8978 21.0747 45.4925 21.16 44.9805 21.224C44.4685 21.3093 44.0525 21.352 43.7325 21.352ZM54.9895 21.352C52.9415 21.352 51.4268 20.7973 50.4455 19.688C49.4855 18.5573 49.0055 16.84 49.0055 14.536V7.816C49.0055 5.91733 49.9548 4.968 51.8535 4.968C52.7708 4.968 53.4748 5.21333 53.9655 5.704C54.4562 6.19467 54.7015 6.89867 54.7015 7.816V14.696C54.7015 16.232 55.3628 17 56.6855 17C57.4535 17 58.0828 16.7227 58.5735 16.168C59.0642 15.6133 59.3095 14.8773 59.3095 13.96V7.816C59.3095 5.91733 60.2588 4.968 62.1575 4.968C63.0748 4.968 63.7788 5.21333 64.2695 5.704C64.7602 6.19467 65.0055 6.89867 65.0055 7.816V18.408C65.0055 20.328 64.0882 21.288 62.2535 21.288C60.6108 21.288 59.6828 20.52 59.4695 18.984C58.4455 20.5627 56.9522 21.352 54.9895 21.352ZM76.1283 27.112C73.7176 27.112 71.7336 26.8027 70.1763 26.184C69.4083 25.9067 68.9069 25.5013 68.6723 24.968C68.4589 24.4347 68.4376 23.8907 68.6083 23.336C68.7789 22.8027 69.0776 22.3867 69.5043 22.088C69.9523 21.8107 70.4749 21.7787 71.0723 21.992C72.0109 22.376 72.8536 22.6213 73.6003 22.728C74.3683 22.856 75.0296 22.92 75.5843 22.92C76.8856 22.92 77.8563 22.6427 78.4963 22.088C79.1576 21.5547 79.4883 20.712 79.4883 19.56V18.088C79.0403 18.856 78.3683 19.464 77.4723 19.912C76.5763 20.36 75.6163 20.584 74.5923 20.584C73.1843 20.584 71.9576 20.264 70.9123 19.624C69.8669 18.9627 69.0456 18.0453 68.4483 16.872C67.8723 15.6987 67.5843 14.3227 67.5843 12.744C67.5843 11.1653 67.8723 9.78933 68.4483 8.616C69.0456 7.44267 69.8669 6.536 70.9123 5.896C71.9576 5.23467 73.1843 4.904 74.5923 4.904C75.6376 4.904 76.5976 5.128 77.4723 5.576C78.3683 6.00267 79.0189 6.58933 79.4243 7.336C79.6163 5.75733 80.5549 4.968 82.2403 4.968C84.0963 4.968 85.0243 5.91733 85.0243 7.816V18.888C85.0243 21.64 84.2563 23.6987 82.7203 25.064C81.1843 26.4293 78.9869 27.112 76.1283 27.112ZM76.3523 16.392C77.2909 16.392 78.0376 16.072 78.5923 15.432C79.1469 14.792 79.4243 13.896 79.4243 12.744C79.4243 11.592 79.1469 10.696 78.5923 10.056C78.0376 9.416 77.2909 9.096 76.3523 9.096C75.4349 9.096 74.6989 9.416 74.1443 10.056C73.5896 10.696 73.3123 11.592 73.3123 12.744C73.3123 13.896 73.5896 14.792 74.1443 15.432C74.6989 16.072 75.4349 16.392 76.3523 16.392ZM93.8235 21.352C92.6075 21.352 91.5302 21.128 90.5915 20.68C89.6742 20.232 88.9488 19.624 88.4155 18.856C87.9035 18.0667 87.6475 17.1707 87.6475 16.168C87.6475 15.0373 87.9462 14.1413 88.5435 13.48C89.1408 12.7973 90.1008 12.3173 91.4235 12.04C92.7462 11.7413 94.5062 11.592 96.7035 11.592H97.9195V11.144C97.9195 10.376 97.7168 9.832 97.3115 9.512C96.9275 9.192 96.2555 9.032 95.2955 9.032C94.7622 9.032 94.1755 9.096 93.5355 9.224C92.9168 9.33067 92.2128 9.53333 91.4235 9.832C90.7195 10.088 90.1328 10.0773 89.6635 9.8C89.1942 9.52267 88.8848 9.128 88.7355 8.616C88.6075 8.08267 88.6608 7.56 88.8955 7.048C89.1515 6.51467 89.6315 6.12 90.3355 5.864C91.3595 5.50133 92.2982 5.256 93.1515 5.128C94.0262 4.97867 94.8262 4.904 95.5515 4.904C98.1755 4.904 100.117 5.46933 101.376 6.6C102.656 7.73067 103.296 9.512 103.296 11.944V18.408C103.296 20.328 102.421 21.288 100.672 21.288C99.0075 21.288 98.1222 20.4347 98.0155 18.728C97.7168 19.5387 97.2048 20.1787 96.4795 20.648C95.7542 21.1173 94.8688 21.352 93.8235 21.352ZM95.1035 17.64C95.8928 17.64 96.5542 17.384 97.0875 16.872C97.6422 16.36 97.9195 15.688 97.9195 14.856V14.28H96.7035C95.4448 14.28 94.5168 14.4187 93.9195 14.696C93.3435 14.952 93.0555 15.368 93.0555 15.944C93.0555 16.4347 93.2262 16.84 93.5675 17.16C93.9302 17.48 94.4422 17.64 95.1035 17.64Z" fill="url(#paint0_linear_732_805)"/>
<defs>
<linearGradient id="paint0_linear_732_805" x1="105" y1="-8.29475" x2="1.31633" y2="8.12766" gradientUnits="userSpaceOnUse">
<stop offset="0.260417" stop-color="#F5785A"/>
<stop offset="0.515641" stop-color="#65FC8E"/>
<stop offset="0.796908" stop-color="#F5EA4E"/>
</linearGradient>
</defs>
</svg>
