<svg width="61" height="59" viewBox="0 0 61 59" fill="none" xmlns="http://www.w3.org/2000/svg">
<path d="M5.47436 45.0954L9.05184 33.1597L17.4047 41.4999L5.47436 45.0954Z" fill="#FF9738"/>
<path d="M46.3992 24.0003C46.3992 35.2669 37.4001 44.4003 26.2992 44.4003C15.1983 44.4003 6.19922 35.2669 6.19922 24.0003C6.19922 12.7337 15.1983 3.60034 26.2992 3.60034C37.4001 3.60034 46.3992 12.7337 46.3992 24.0003Z" fill="#FF9738"/>
<path d="M26.5745 14.6437C25.2857 14.8957 23.8745 15.7309 22.7657 17.6893C22.6489 17.8949 22.4928 18.0756 22.3062 18.2209C22.1196 18.3662 21.9063 18.4733 21.6783 18.5362C21.4503 18.599 21.2122 18.6164 20.9775 18.5872C20.7428 18.558 20.5162 18.4829 20.3105 18.3661C20.1049 18.2493 19.9242 18.0932 19.7789 17.9066C19.6336 17.72 19.5265 17.5067 19.4636 17.2787C19.4008 17.0507 19.3834 16.8125 19.4126 16.5779C19.4418 16.3432 19.5169 16.1165 19.6337 15.9109C21.2213 13.1173 23.4785 11.5801 25.8833 11.1121C28.1209 10.6895 30.4351 11.1557 32.3345 12.4117C34.0769 13.5637 35.4845 15.4465 35.5277 17.7037C35.5745 20.0617 34.1417 22.1893 31.4993 23.7517C29.7065 24.8101 29.0081 25.5301 28.7093 26.0089C28.4573 26.4121 28.3997 26.7793 28.3997 27.6001C28.3997 28.0775 28.2101 28.5353 27.8725 28.8729C27.5349 29.2105 27.0771 29.4001 26.5997 29.4001C26.1223 29.4001 25.6645 29.2105 25.3269 28.8729C24.9894 28.5353 24.7997 28.0775 24.7997 27.6001C24.7997 26.6209 24.8501 25.4041 25.6529 24.1081C26.4089 22.8949 27.7013 21.8149 29.6669 20.6521C31.5929 19.5109 31.9421 18.4273 31.9313 17.7793C31.9133 17.0341 31.4201 16.1233 30.3473 15.4141C29.2366 14.6793 27.8844 14.4032 26.5745 14.6437ZM27.4997 38.4001C28.2158 38.4001 28.9025 38.1156 29.4089 37.6093C29.9152 37.1029 30.1997 36.4162 30.1997 35.7001C30.1997 34.984 29.9152 34.2973 29.4089 33.7909C28.9025 33.2846 28.2158 33.0001 27.4997 33.0001C26.7836 33.0001 26.0969 33.2846 25.5905 33.7909C25.0842 34.2973 24.7997 34.984 24.7997 35.7001C24.7997 36.4162 25.0842 37.1029 25.5905 37.6093C26.0969 38.1156 26.7836 38.4001 27.4997 38.4001ZM26.5997 0.600098C22.5191 0.599146 18.5091 1.66532 14.9678 3.69282C11.4265 5.72031 8.47693 8.63864 6.41186 12.1582C4.34679 15.6777 3.23799 19.6761 3.19552 23.7565C3.15304 27.8369 4.17835 31.8575 6.16971 35.4193L3.30771 42.9145C3.06949 43.5375 3.00907 44.2145 3.13317 44.8699C3.25727 45.5253 3.56103 46.1333 4.01054 46.6262C4.46006 47.119 5.03766 47.4772 5.67891 47.6609C6.32016 47.8446 6.99983 47.8466 7.64211 47.6665L16.5953 45.1573C19.7669 46.6558 23.2348 47.4222 26.7424 47.3996C30.2501 47.377 33.7079 46.5662 36.8599 45.027C40.0119 43.4878 42.7776 41.2596 44.9523 38.5073C47.127 35.755 48.6551 32.549 49.4235 29.1264C50.192 25.7039 50.1811 22.1524 49.3918 18.7346C48.6025 15.3168 47.0549 12.1201 44.8634 9.38117C42.672 6.64219 39.8928 4.43094 36.7314 2.91099C33.5701 1.39103 30.1075 0.601261 26.5997 0.600098ZM6.79971 24.0001C6.80131 19.6852 8.21236 15.489 10.8182 12.0499C13.424 8.61074 17.0819 6.11695 21.2354 4.94795C25.3889 3.77896 29.8105 3.99874 33.8276 5.57386C37.8447 7.14898 41.2373 9.99322 43.4892 13.6738C45.7412 17.3544 46.7291 21.6699 46.3028 25.9636C45.8765 30.2574 44.0593 34.2943 41.1276 37.4603C38.196 40.6262 34.3104 42.7479 30.062 43.5024C25.8136 44.2569 21.435 43.603 17.5925 41.6401L16.9661 41.3161L6.67011 44.1997L10.1585 35.0701L9.69771 34.3141C7.79743 31.2098 6.79433 27.6398 6.79971 24.0001ZM37.2665 58.2001C33.8981 58.2038 30.5688 57.4786 27.5071 56.0742C24.4454 54.6698 21.7238 52.6195 19.5293 50.0641C21.5561 50.6149 23.6801 50.9317 25.8653 50.9893C29.2 53.3446 33.1839 54.6063 37.2665 54.6001C40.5137 54.6001 43.5737 53.8189 46.2737 52.4401L46.9001 52.1161L57.1961 54.9997L53.7077 45.8701L54.1685 45.1141C56.0045 42.1117 57.0665 38.5837 57.0665 34.8001C57.0721 30.8025 55.8617 26.8977 53.5961 23.6041C53.5666 21.4624 53.2826 19.3319 52.7501 17.2573C55.2409 19.4506 57.2354 22.1498 58.6005 25.1748C59.9656 28.1999 60.6699 31.4813 60.6665 34.8001C60.6665 38.9437 59.5865 42.8389 57.6929 46.2193L60.5585 53.7145C60.7964 54.3372 60.8566 55.0137 60.7326 55.6687C60.6087 56.3236 60.3053 56.9313 59.8562 57.4239C59.4072 57.9166 58.8303 58.275 58.1896 58.459C57.5489 58.6431 56.8698 58.6457 56.2277 58.4665L47.2709 55.9573C44.2361 57.3973 40.8413 58.2001 37.2629 58.2001H37.2665Z" fill="#F3F8FF"/>
</svg>
